<?xml version="1.0" encoding="UTF-8"?>
<svg version="1.1" xmlns="http://www.w3.org/2000/svg" width="500" height="500">
<path d="M0 0 C165 0 330 0 500 0 C500 165 500 330 500 500 C335 500 170 500 0 500 C0 335 0 170 0 0 Z " fill="#FEFEFD" transform="translate(0,0)"/>
<path d="M0 0 C3 1 3 1 4 3 C4.039992 4.99960012 4.04346799 7.00047242 4 9 C4.99 9.33 5.98 9.66 7 10 C9.07530387 12.92079805 10 14.37546731 10 18 C10.66 18 11.32 18 12 18 C25.15349062 40.86837835 25.15349062 40.86837835 28.921875 49.73046875 C30.60476184 53.2730675 32.71314337 56.53782259 34.828125 59.8359375 C36 62 36 62 36 65 C36.66 65 37.32 65 38 65 C38 66.98 38 68.96 38 71 C38.86818359 71.02900391 38.86818359 71.02900391 39.75390625 71.05859375 C43.30901947 72.5486499 44.33113824 75.75797311 45.9375 79.0625 C46.63844879 80.44381481 47.34155692 81.82403609 48.046875 83.203125 C48.38267578 83.86505859 48.71847656 84.52699219 49.06445312 85.20898438 C50.1662788 87.31832496 51.38678328 89.320263 52.6875 91.3125 C54.49863555 94.10164874 55.99045179 96.94265971 57.4375 99.9375 C59.1138951 103.38547983 60.95037197 106.53026226 63.125 109.6875 C65.62283734 113.31667334 67.3219565 116.91432886 69 121 C71.94146831 126.89407102 71.94146831 126.89407102 76 132 C76.62848849 133.67120802 77.20478835 135.36230052 77.75 137.0625 C79.12830821 141.03679472 80.66184061 144.21863079 83.125 147.625 C86.24206856 151.97787605 87.1647132 155.73769314 88 161 C88.66 161 89.32 161 90 161 C90.1546875 161.8971875 90.1546875 161.8971875 90.3125 162.8125 C90.81854174 165.0289785 90.81854174 165.0289785 92.33203125 166.29296875 C98.05119191 172.14606759 101.43673558 180.70574692 104.671875 188.125 C106.73512736 192.59133453 109.14746481 196.85948595 111.546875 201.15234375 C112.74929529 203.50869964 113.5275805 205.42034087 114 208 C114.66 208 115.32 208 116 208 C116 209.98 116 211.96 116 214 C116.99 214.33 117.98 214.66 119 215 C120.4296875 217.328125 120.4296875 217.328125 121.875 220.25 C124.14284652 224.61687071 126.46792377 227.56338529 130 231 C131.06652192 233.30368736 132.06421005 235.64018187 133 238 C133.98564651 239.68513759 134.97156174 241.37013298 135.96484375 243.05078125 C137.59106721 246.11299071 138.74834074 249.34608224 139.9921875 252.578125 C140.9017485 254.76389175 141.91306459 256.72113036 143.125 258.75 C145 262 145 262 146.0625 265.25 C146.75101572 267.95937504 146.75101572 267.95937504 148.34765625 269.29296875 C150.60203428 271.62195977 151.86589647 274.1979347 153.375 277.0625 C153.98730469 278.2175 154.59960938 279.3725 155.23046875 280.5625 C157.1537162 284.29860983 158.99391703 288.06688291 160.76171875 291.87890625 C161.93769841 294.11065874 161.93769841 294.11065874 163.97265625 295.91796875 C168.58737306 300.65716732 171.32428496 308.15042119 171.3125 314.75 C171.1578125 316.35875 171.1578125 316.35875 171 318 C169.68 318.33 168.36 318.66 167 319 C166.95875 319.928125 166.9175 320.85625 166.875 321.8125 C166.22445935 326.53848651 163.8270061 330.21108362 161.48828125 334.296875 C159.58255455 337.75819489 158.25955006 341.26687574 157 345 C154.27906977 352.86046512 154.27906977 352.86046512 152 354 C151.13539047 355.40677392 150.33046991 356.85072549 149.5625 358.3125 C148.29513784 360.7161179 147.06023216 362.91988973 145.42578125 365.09375 C143.80668057 367.25846542 142.89511086 369.5221743 141.8828125 372.015625 C140.88951147 374.24835475 139.71932426 376.32011056 138.5 378.4375 C136.82076021 381.38247309 135.45197804 384.24464782 134.3125 387.4375 C133 391 133 391 131 393 C130.24223736 394.68698982 129.53888218 396.39890633 128.875 398.125 C128.34519531 399.49011719 128.34519531 399.49011719 127.8046875 400.8828125 C127.53914062 401.58148438 127.27359375 402.28015625 127 403 C126.34 403 125.68 403 125 403 C124.6596875 404.2375 124.6596875 404.2375 124.3125 405.5 C122.96497696 409.09339477 121.24572856 411.91774125 119.1640625 415.11328125 C117.80621005 417.31409579 116.93541921 419.59463631 116 422 C115.5153125 422.60457031 115.030625 423.20914062 114.53125 423.83203125 C112.84350931 426.22156208 112.29681569 428.10627674 111.625 430.9375 C110.30537767 435.64848333 108.51514755 437.56660007 105 441 C103.9500275 442.95311506 102.95516835 444.93631182 102 446.9375 C97.84002619 455.54397643 97.84002619 455.54397643 94 459 C90.84375 459.140625 90.84375 459.140625 88 459 C86.01432292 455.02864583 84.02864583 451.05729167 82.04296875 447.0859375 C81.69500244 446.39218018 81.34703613 445.69842285 80.98852539 444.98364258 C80.10733265 443.21538102 79.24382391 441.43833199 78.3828125 439.66015625 C77.02169752 436.83976664 77.02169752 436.83976664 74.6875 434.0625 C71.24381059 429.41559381 69.47625152 423.96254343 67.4140625 418.61328125 C64.84275002 411.55317985 64.84275002 411.55317985 60.515625 405.5625 C58.75150071 403.74381517 57.93986011 402.071255 56.9375 399.75 C56.61652344 399.02296875 56.29554688 398.2959375 55.96484375 397.546875 C55 395 55 395 54.1328125 391.6796875 C52.86088355 387.5481114 51.0623955 384.11542428 48.9375 380.375 C46.64667093 376.33665353 44.58309932 372.68273606 44 368 C43.01 368 42.02 368 41 368 C40.80664062 367.43410156 40.61328125 366.86820312 40.4140625 366.28515625 C40.15367187 365.55167969 39.89328125 364.81820313 39.625 364.0625 C39.36976563 363.33160156 39.11453125 362.60070312 38.8515625 361.84765625 C38.14728587 359.81317884 38.14728587 359.81317884 36 359 C36 357.35 36 355.7 36 354 C35.34 354 34.68 354 34 354 C33.18325204 352.25197854 32.37176549 350.50149811 31.5625 348.75 C31.11003906 347.77546875 30.65757812 346.8009375 30.19140625 345.796875 C29 343 29 343 28.52734375 340.703125 C28.35332031 340.14109375 28.17929688 339.5790625 28 339 C27.01 338.67 26.02 338.34 25 338 C24.19140625 335.92578125 24.19140625 335.92578125 23.5625 333.3125 C22.36299827 328.88065676 20.70165828 325.74746148 18 322 C17.28752268 320.3523962 16.62599617 318.68236471 16 317 C13.79936758 311.63948513 11.24484332 306.56980144 8.4375 301.5 C5.64063902 296.40230254 3.72376463 291.5341917 2 286 C1.34 285.34 0.68 284.68 0 284 C-0.58594189 282.62216635 -1.11977601 281.22193329 -1.625 279.8125 C-4.18613107 273.20497226 -7.58368127 267.0769694 -10.97851562 260.87402344 C-12.52785818 258.03158715 -14.04122379 255.17003233 -15.5625 252.3125 C-18.41313939 247.0100492 -21.42131762 241.81757614 -24.51953125 236.65625 C-26.52295386 233.06171867 -27.83006652 229.64499197 -28.87890625 225.6640625 C-30.13255058 221.56678589 -31.87053977 218.10690618 -33.9375 214.375 C-34.28490234 213.73304688 -34.63230469 213.09109375 -34.99023438 212.4296875 C-36.47166985 209.70674771 -37.97608271 207.03796941 -39.62890625 204.4140625 C-41 202 -41 202 -41.875 199.296875 C-43.44658428 194.69125994 -45.71587439 190.53763007 -48 186.25 C-48.45117188 185.38761719 -48.90234375 184.52523437 -49.3671875 183.63671875 C-51.74261724 179.00345231 -51.74261724 179.00345231 -55 175 C-55.165 174.319375 -55.33 173.63875 -55.5 172.9375 C-55.665 172.298125 -55.83 171.65875 -56 171 C-56.66 170.67 -57.32 170.34 -58 170 C-58.9296875 168.14453125 -58.9296875 168.14453125 -59.875 165.8125 C-61.10378482 162.91183694 -62.26275269 160.61781427 -64.0625 158 C-70.10512728 148.64367389 -70.79206631 136.7900375 -69 126 C-66.98112035 119.8134013 -63.61438491 113.61438491 -59 109 C-58.3574765 106.93125966 -58.3574765 106.93125966 -58 105 C-56.02 104.505 -56.02 104.505 -54 104 C-53.87625 103.443125 -53.7525 102.88625 -53.625 102.3125 C-51.73441968 95.3173528 -48.12178355 88.91696771 -44.5 82.6875 C-42.06604048 78.38875303 -40.44218904 73.96764429 -38.89453125 69.28515625 C-38 67 -38 67 -36 65 C-35.835 64.319375 -35.67 63.63875 -35.5 62.9375 C-35.335 62.298125 -35.17 61.65875 -35 61 C-34.34 60.67 -33.68 60.34 -33 60 C-32.28489918 58.36548385 -31.5769346 56.7274563 -30.90625 55.07421875 C-29.61042525 52.10834399 -27.99536852 49.35289761 -26.39453125 46.54296875 C-24.25313714 42.63807362 -22.35009244 38.61884203 -20.4296875 34.6015625 C-19.10488187 32.19085061 -17.91407281 30.9043813 -16 29 C-14.12547935 25.88136542 -12.3784435 22.70543627 -10.62109375 19.51953125 C-10.08613281 18.68808594 -9.55117187 17.85664062 -9 17 C-8.34 17 -7.68 17 -7 17 C-7.061875 16.278125 -7.12375 15.55625 -7.1875 14.8125 C-6.96087374 11.4131061 -5.81007432 9.85434796 -4 7 C-3.649375 5.9275 -3.29875 4.855 -2.9375 3.75 C-2 1 -2 1 0 0 Z " fill="#6CA101" transform="translate(116,29)"/>
<path d="M0 0 C42.86370869 -0.06862171 85.72741106 -0.12150619 128.59116377 -0.15319599 C133.64817828 -0.15694824 138.70519268 -0.1608312 143.76220703 -0.16479492 C144.76899497 -0.16558185 145.7757829 -0.16636878 146.81307957 -0.16717956 C163.12867361 -0.18024415 179.44423604 -0.20390378 195.75981131 -0.23145839 C212.49305228 -0.25948331 229.22627665 -0.27617008 245.95954013 -0.28226548 C256.2902316 -0.28638798 266.62083373 -0.2994225 276.9514977 -0.3237494 C284.02941317 -0.33957065 291.10728225 -0.34440857 298.18521413 -0.34050413 C302.27275886 -0.33857694 306.36014714 -0.34159313 310.44766426 -0.35761642 C314.18704494 -0.37216844 317.92616329 -0.37298321 321.6655558 -0.36269668 C323.66483143 -0.36082017 325.66410378 -0.37380106 327.66333508 -0.38724393 C328.84520359 -0.38127078 330.02707209 -0.37529764 331.24475479 -0.36914349 C332.77806548 -0.37085223 332.77806548 -0.37085223 334.34235215 -0.37259549 C337.41069514 0.05757842 338.79298709 0.85453602 341 3 C341.390625 5.26171875 341.390625 5.26171875 341.25 7.6875 C341.21390625 8.49574219 341.1778125 9.30398437 341.140625 10.13671875 C341.09421875 10.75160156 341.0478125 11.36648437 341 12 C340.34 12 339.68 12 339 12 C338.34 13.65 337.68 15.3 337 17 C336.01 17 335.02 17 334 17 C334.0825 17.70125 334.165 18.4025 334.25 19.125 C334 22 334 22 332.125 24.6875 C329.37848534 28.96883168 328.74651647 33.02977192 328 38 C327.01 38 326.02 38 325 38 C324.83951172 38.83724609 324.83951172 38.83724609 324.67578125 39.69140625 C322.7861444 46.14675525 318.1782108 51.84687335 314 57 C311.06872614 61.618977 309.22502076 65.92492794 307.7109375 71.1796875 C307 73 307 73 305 74 C304.01115761 75.89068985 303.08267723 77.81320494 302.1875 79.75 C299.91826941 84.43131831 297.66847526 87.33152474 294 91 C292.32548229 94.07064166 290.81266968 97.18713691 289.33203125 100.35546875 C288 103 288 103 286 105 C285.68933594 105.77730469 285.37867188 106.55460937 285.05859375 107.35546875 C283.99533911 110.01164363 282.72657027 111.99635131 281.0625 114.3125 C278.24904939 118.412296 276.54335451 122.28419456 275 127 C274.34 127 273.68 127 273 127 C272.9175 127.721875 272.835 128.44375 272.75 129.1875 C271.66684162 133.24934394 269.29961117 135.74852257 266.3125 138.625 C264.73627162 140.08068897 264.73627162 140.08068897 264 143 C240.22615616 143.09340011 216.45233978 143.16395804 192.67834949 143.20724869 C181.63991479 143.22788266 170.60159401 143.25601929 159.56323242 143.30175781 C149.94331194 143.34159992 140.32347396 143.36742673 130.70347327 143.37635398 C125.60871303 143.38157316 120.51418883 143.39385759 115.41950417 143.42292023 C110.62524894 143.45004777 105.83132725 143.45845036 101.03700256 143.45243073 C99.2765592 143.45353215 97.51610481 143.46150189 95.75572777 143.4768219 C93.35296118 143.49670865 90.95145572 143.49194468 88.54866028 143.48101807 C87.50244128 143.49849512 87.50244128 143.49849512 86.43508655 143.51632524 C81.70103646 143.45808933 79.32224387 142.34315487 76 139 C74.7421875 136.59765625 74.7421875 136.59765625 73.875 134.0625 C71.7764915 127.49328484 71.7764915 127.49328484 67 123 C66.1456893 121.13155857 65.36520283 119.22901243 64.625 117.3125 C62.79630696 112.78608487 60.8541292 108.97848313 58 105 C56.46634172 102.46824665 54.96372333 99.91965618 53.46484375 97.3671875 C52.04124816 94.98746226 52.04124816 94.98746226 50.375 92.8359375 C48.74311486 90.65699996 47.98195795 88.54153823 47 86 C46.34987749 84.5756652 45.68201969 83.15933957 45 81.75 C44.67 81.06421875 44.34 80.3784375 44 79.671875 C43.09910688 77.825372 43.09910688 77.825372 41 77 C40.16869752 74.96112127 39.40911673 72.89273065 38.6875 70.8125 C36.70540587 65.46084585 34.78089883 62.16868332 31 58 C29.12487762 54.70883693 27.57491296 51.26798985 26.01171875 47.8203125 C25.12940395 45.82947966 25.12940395 45.82947966 23 45 C22.27004016 43.04238044 21.54392765 41.0831345 20.84765625 39.11328125 C19.64612828 36.11776683 17.82435061 33.65360088 16 31 C15.35566442 29.7598562 14.73180563 28.50893285 14.125 27.25 C11.2802903 21.39192191 7.84094135 15.85751685 4.31640625 10.38671875 C3 8 3 8 3 5 C2.01 5 1.02 5 0 5 C0 3.35 0 1.7 0 0 Z " fill="#56AE01" transform="translate(124,16)"/>
<path d="M0 0 C2.42099412 -0.01686413 4.84193292 -0.04452987 7.26269531 -0.08203125 C10.82145949 -0.13642852 14.37911069 -0.15857426 17.93823242 -0.17333984 C19.020345 -0.19600922 20.10245758 -0.21867859 21.21736145 -0.24203491 C28.59882614 -0.22100012 28.59882614 -0.22100012 31.94677734 2.66015625 C33.98045992 6.81809179 33.94032161 10.36863021 32.44995117 14.72509766 C31.26245117 16.35009766 31.26245117 16.35009766 28.26245117 17.35009766 C27.31243829 19.41768394 27.31243829 19.41768394 26.69995117 21.85009766 C26.00854492 24.31884766 26.00854492 24.31884766 25.26245117 26.35009766 C24.60245117 26.68009766 23.94245117 27.01009766 23.26245117 27.35009766 C22.57593296 28.90774402 21.96117265 30.49747072 21.38745117 32.10009766 C19.82614009 36.18841964 18.04266927 38.96170685 15.26245117 42.35009766 C14.15017922 44.5908791 13.15957476 46.85984844 12.19213867 49.16650391 C9.6397239 55.16146129 9.6397239 55.16146129 7.26245117 56.35009766 C6.66349024 58.65720644 6.30590152 60.96698483 5.92260742 63.31884766 C5.59583008 64.32431641 5.59583008 64.32431641 5.26245117 65.35009766 C4.27245117 65.68009766 3.28245117 66.01009766 2.26245117 66.35009766 C2.26245117 68.00009766 2.26245117 69.65009766 2.26245117 71.35009766 C1.27245117 71.84509766 1.27245117 71.84509766 0.26245117 72.35009766 C-0.23254883 73.83509766 -0.23254883 73.83509766 -0.73754883 75.35009766 C-1.39754883 75.35009766 -2.05754883 75.35009766 -2.73754883 75.35009766 C-2.73754883 76.67009766 -2.73754883 77.99009766 -2.73754883 79.35009766 C-5.11254883 79.10009766 -5.11254883 79.10009766 -7.73754883 78.35009766 C-8.92504883 76.35009766 -8.92504883 76.35009766 -9.73754883 74.35009766 C-10.72754883 73.85509766 -10.72754883 73.85509766 -11.73754883 73.35009766 C-12.80786133 71.17041016 -12.80786133 71.17041016 -13.86254883 68.47509766 C-14.21575195 67.59080078 -14.56895508 66.70650391 -14.93286133 65.79541016 C-15.73754883 63.35009766 -15.73754883 63.35009766 -15.73754883 60.35009766 C-16.72754883 60.02009766 -17.71754883 59.69009766 -18.73754883 59.35009766 C-20.13208008 56.97900391 -20.13208008 56.97900391 -21.55004883 53.91259766 C-25.52382181 45.63145101 -30.18697301 37.98304634 -35.44067383 30.45556641 C-36.85363876 28.16162636 -37.7942689 25.86964799 -38.73754883 23.35009766 C-40.02752023 20.18992508 -40.02752023 20.18992508 -42.73754883 18.35009766 C-42.73754883 17.03009766 -42.73754883 15.71009766 -42.73754883 14.35009766 C-43.72754883 14.35009766 -44.71754883 14.35009766 -45.73754883 14.35009766 C-46.17067383 12.95791016 -46.17067383 12.95791016 -46.61254883 11.53759766 C-47.62504883 8.25218099 -47.62504883 8.25218099 -49.73754883 5.35009766 C-49.73754883 4.03009766 -49.73754883 2.71009766 -49.73754883 1.35009766 C-33.16047318 0.57904538 -16.59541885 0.08468802 0 0 Z " fill="#F9B405" transform="translate(303.737548828125,245.64990234375)"/>
<path d="M0 0 C42.86370869 -0.06862171 85.72741106 -0.12150619 128.59116377 -0.15319599 C133.64817828 -0.15694824 138.70519268 -0.1608312 143.76220703 -0.16479492 C144.76899497 -0.16558185 145.7757829 -0.16636878 146.81307957 -0.16717956 C163.12867361 -0.18024415 179.44423604 -0.20390378 195.75981131 -0.23145839 C212.49305228 -0.25948331 229.22627665 -0.27617008 245.95954013 -0.28226548 C256.2902316 -0.28638798 266.62083373 -0.2994225 276.9514977 -0.3237494 C284.02941317 -0.33957065 291.10728225 -0.34440857 298.18521413 -0.34050413 C302.27275886 -0.33857694 306.36014714 -0.34159313 310.44766426 -0.35761642 C314.18704494 -0.37216844 317.92616329 -0.37298321 321.6655558 -0.36269668 C323.66483143 -0.36082017 325.66410378 -0.37380106 327.66333508 -0.38724393 C328.84520359 -0.38127078 330.02707209 -0.37529764 331.24475479 -0.36914349 C332.77806548 -0.37085223 332.77806548 -0.37085223 334.34235215 -0.37259549 C337.41069514 0.05757842 338.79298709 0.85453602 341 3 C341.390625 5.26171875 341.390625 5.26171875 341.25 7.6875 C341.21390625 8.49574219 341.1778125 9.30398437 341.140625 10.13671875 C341.09421875 10.75160156 341.0478125 11.36648437 341 12 C340.34 12 339.68 12 339 12 C339 10.02 339 8.04 339 6 C337.68 6.66 336.36 7.32 335 8 C335 7.01 335 6.02 335 5 C333.48429948 5.00911329 333.48429948 5.00911329 331.93797874 5.01841068 C307.26188222 5.1665187 282.58575466 5.30809445 257.90958214 5.4429636 C245.97599731 5.50833595 234.04243101 5.57577031 222.10888672 5.64819336 C211.69812483 5.71136947 201.28734888 5.77053977 190.87653792 5.82505554 C185.37275202 5.85401165 179.86899266 5.88486773 174.36524582 5.92053413 C169.16640139 5.95416102 163.9675536 5.98236136 158.76865768 6.00670624 C156.87829497 6.01645907 154.98794055 6.02805907 153.09760284 6.04183006 C139.70217117 6.13786795 126.37612895 5.72445284 113 5 C113 4.34 113 3.68 113 3 C98.85719767 3.10724733 84.71444931 3.22007426 70.57174301 3.33933926 C64.00503982 3.3945527 57.43833216 3.44797029 50.87158203 3.49731445 C44.53679744 3.54498113 38.20206733 3.59732495 31.86734772 3.65294075 C29.44800418 3.67335382 27.02864571 3.69206864 24.60927582 3.70907402 C21.22611585 3.73314104 17.84305886 3.76319275 14.45996094 3.79467773 C12.95268684 3.80331093 12.95268684 3.80331093 11.41496277 3.81211853 C10.49232132 3.82190735 9.56967987 3.83169617 8.61907959 3.84178162 C7.81896328 3.84823417 7.01884697 3.85468672 6.19448471 3.8613348 C4.01513657 3.99904355 2.09515922 4.39995512 0 5 C0 3.35 0 1.7 0 0 Z " fill="#88C151" transform="translate(124,16)"/>
<path d="M0 0 C2.42099412 -0.01686413 4.84193292 -0.04452987 7.26269531 -0.08203125 C10.82145949 -0.13642852 14.37911069 -0.15857426 17.93823242 -0.17333984 C19.020345 -0.19600922 20.10245758 -0.21867859 21.21736145 -0.24203491 C28.59882614 -0.22100012 28.59882614 -0.22100012 31.94677734 2.66015625 C33.98045992 6.81809179 33.94032161 10.36863021 32.44995117 14.72509766 C31.26245117 16.35009766 31.26245117 16.35009766 28.26245117 17.35009766 C27.31243829 19.41768394 27.31243829 19.41768394 26.69995117 21.85009766 C26.00854492 24.31884766 26.00854492 24.31884766 25.26245117 26.35009766 C24.60245117 26.68009766 23.94245117 27.01009766 23.26245117 27.35009766 C22.57593296 28.90774402 21.96117265 30.49747072 21.38745117 32.10009766 C19.82614009 36.18841964 18.04266927 38.96170685 15.26245117 42.35009766 C14.15017922 44.5908791 13.15957476 46.85984844 12.19213867 49.16650391 C9.6397239 55.16146129 9.6397239 55.16146129 7.26245117 56.35009766 C6.66349024 58.65720644 6.30590152 60.96698483 5.92260742 63.31884766 C5.59583008 64.32431641 5.59583008 64.32431641 5.26245117 65.35009766 C4.27245117 65.68009766 3.28245117 66.01009766 2.26245117 66.35009766 C2.26245117 68.00009766 2.26245117 69.65009766 2.26245117 71.35009766 C1.27245117 71.84509766 1.27245117 71.84509766 0.26245117 72.35009766 C-0.23254883 73.83509766 -0.23254883 73.83509766 -0.73754883 75.35009766 C-1.39754883 75.35009766 -2.05754883 75.35009766 -2.73754883 75.35009766 C-2.73754883 76.67009766 -2.73754883 77.99009766 -2.73754883 79.35009766 C-5.11254883 79.10009766 -5.11254883 79.10009766 -7.73754883 78.35009766 C-8.92504883 76.35009766 -8.92504883 76.35009766 -9.73754883 74.35009766 C-10.72754883 73.85509766 -10.72754883 73.85509766 -11.73754883 73.35009766 C-12.80786133 71.17041016 -12.80786133 71.17041016 -13.86254883 68.47509766 C-14.21575195 67.59080078 -14.56895508 66.70650391 -14.93286133 65.79541016 C-15.73754883 63.35009766 -15.73754883 63.35009766 -15.73754883 60.35009766 C-16.72754883 60.02009766 -17.71754883 59.69009766 -18.73754883 59.35009766 C-20.30786133 56.76806641 -20.30786133 56.76806641 -21.86254883 53.53759766 C-22.38075195 52.47927734 -22.89895508 51.42095703 -23.43286133 50.33056641 C-24.46887705 47.96385984 -25.23731802 45.86955284 -25.73754883 43.35009766 C-24.74754883 43.35009766 -23.75754883 43.35009766 -22.73754883 43.35009766 C-22.73754883 45.00009766 -22.73754883 46.65009766 -22.73754883 48.35009766 C-21.41754883 48.35009766 -20.09754883 48.35009766 -18.73754883 48.35009766 C-18.67567383 49.13384766 -18.61379883 49.91759766 -18.55004883 50.72509766 C-18.28192383 51.59134766 -18.01379883 52.45759766 -17.73754883 53.35009766 C-15.26118871 54.72476391 -15.26118871 54.72476391 -12.73754883 55.35009766 C-12.73754883 56.01009766 -12.73754883 56.67009766 -12.73754883 57.35009766 C-11.74754883 57.84509766 -11.74754883 57.84509766 -10.73754883 58.35009766 C-11.39754883 59.01009766 -12.05754883 59.67009766 -12.73754883 60.35009766 C-12.90432165 63.93353742 -12.90432165 63.93353742 -12.73754883 67.35009766 C-12.07754883 67.35009766 -11.41754883 67.35009766 -10.73754883 67.35009766 C-10.73754883 69.00009766 -10.73754883 70.65009766 -10.73754883 72.35009766 C-6.18949247 72.52845281 -2.85812343 72.34795201 1.26245117 70.35009766 C1.3048684 68.0171499 1.30338055 65.68307199 1.26245117 63.35009766 C0.93245117 63.02009766 0.60245117 62.69009766 0.26245117 62.35009766 C0.22181285 60.68392651 0.21973017 59.01621671 0.26245117 57.35009766 C0.92245117 57.02009766 1.58245117 56.69009766 2.26245117 56.35009766 C3.25245117 56.68009766 4.24245117 57.01009766 5.26245117 57.35009766 C5.59245117 53.72009766 5.92245117 50.09009766 6.26245117 46.35009766 C5.60245117 46.35009766 4.94245117 46.35009766 4.26245117 46.35009766 C4.26245117 45.69009766 4.26245117 45.03009766 4.26245117 44.35009766 C5.88871521 42.96777322 7.55495138 41.6307225 9.26245117 40.35009766 C9.75745117 42.33009766 9.75745117 42.33009766 10.26245117 44.35009766 C11.25245117 44.35009766 12.24245117 44.35009766 13.26245117 44.35009766 C13.26245117 43.36009766 13.26245117 42.37009766 13.26245117 41.35009766 C12.27245117 40.85509766 12.27245117 40.85509766 11.26245117 40.35009766 C11.71586986 39.07750255 12.17540344 37.80708523 12.63745117 36.53759766 C13.02030273 35.47605469 13.02030273 35.47605469 13.41088867 34.39306641 C14.26245117 32.35009766 14.26245117 32.35009766 16.26245117 29.35009766 C16.26245117 28.03009766 16.26245117 26.71009766 16.26245117 25.35009766 C17.25245117 25.35009766 18.24245117 25.35009766 19.26245117 25.35009766 C19.36557617 24.81384766 19.46870117 24.27759766 19.57495117 23.72509766 C20.45673456 20.67893686 21.67661292 18.09481772 23.26245117 15.35009766 C26.26245117 14.35009766 26.26245117 14.35009766 29.26245117 15.35009766 C29.26245117 14.69009766 29.26245117 14.03009766 29.26245117 13.35009766 C28.60245117 13.35009766 27.94245117 13.35009766 27.26245117 13.35009766 C27.26245117 12.03009766 27.26245117 10.71009766 27.26245117 9.35009766 C27.92245117 9.35009766 28.58245117 9.35009766 29.26245117 9.35009766 C29.94393347 7.45830562 29.94393347 7.45830562 30.26245117 5.35009766 C27.8211188 2.90876528 26.52136307 3.11551634 23.19055176 3.10125732 C22.48708618 3.10844788 21.78362061 3.11563843 21.05883789 3.12304688 C20.31727448 3.12275482 19.57571106 3.12246277 18.81167603 3.12216187 C16.35504546 3.12355771 13.89871639 3.13913067 11.44213867 3.15478516 C9.74106004 3.15851439 8.03997925 3.16136178 6.33889771 3.1633606 C1.85734141 3.17100417 -2.62408566 3.19065881 -7.10559082 3.21276855 C-11.67690279 3.23321144 -16.2482356 3.24235897 -20.81958008 3.25244141 C-29.79229317 3.27390407 -38.76491026 3.30804869 -47.73754883 3.35009766 C-47.40754883 4.34009766 -47.07754883 5.33009766 -46.73754883 6.35009766 C-46.07754883 6.68009766 -45.41754883 7.01009766 -44.73754883 7.35009766 C-44.00679234 9.66415985 -43.33616625 11.99838635 -42.73754883 14.35009766 C-43.72754883 14.35009766 -44.71754883 14.35009766 -45.73754883 14.35009766 C-46.17067383 12.95791016 -46.17067383 12.95791016 -46.61254883 11.53759766 C-47.62504883 8.25218099 -47.62504883 8.25218099 -49.73754883 5.35009766 C-49.73754883 4.03009766 -49.73754883 2.71009766 -49.73754883 1.35009766 C-33.16047318 0.57904538 -16.59541885 0.08468802 0 0 Z " fill="#F7B314" transform="translate(303.737548828125,245.64990234375)"/>
<path d="M0 0 C0.99 0.33 1.98 0.66 3 1 C2.42415568 3.38564077 1.77772405 5.66682784 1 8 C0.34 8 -0.32 8 -1 8 C-1.0825 8.721875 -1.165 9.44375 -1.25 10.1875 C-2.33315838 14.24934394 -4.70038883 16.74852257 -7.6875 19.625 C-9.26372838 21.08068897 -9.26372838 21.08068897 -10 24 C-70.39 24 -130.78 24 -193 24 C-193.33 23.34 -193.66 22.68 -194 22 C-178.11312939 21.86687902 -162.22623888 21.73644241 -146.33932304 21.60884857 C-138.95569733 21.54949118 -131.57207949 21.48937762 -124.18847656 21.42724609 C-86.45786421 21.11024032 -48.73229043 20.92283603 -11 21 C-10.67 20.01 -10.34 19.02 -10 18 C-9.34 18 -8.68 18 -8 18 C-7.896875 17.38125 -7.79375 16.7625 -7.6875 16.125 C-7 14 -7 14 -4 12 C-3.27034634 9.43717258 -3.27034634 9.43717258 -3 7 C-2.01 7 -1.02 7 0 7 C0 4.69 0 2.38 0 0 Z " fill="#6CA22A" transform="translate(398,135)"/>
<path d="M0 0 C42.89775923 -0.04573534 85.79551566 -0.08099777 128.69329443 -0.10213066 C133.75288643 -0.1046322 138.81247838 -0.10722083 143.87207031 -0.10986328 C145.38303915 -0.11065021 145.38303915 -0.11065021 146.92453261 -0.11145304 C163.25440149 -0.12016574 179.58425635 -0.13594045 195.9141169 -0.15430559 C212.65864943 -0.17298063 229.4031746 -0.18411164 246.14771712 -0.18817699 C256.48760556 -0.19092704 266.82745438 -0.19962598 277.16733064 -0.21583293 C284.24896383 -0.22637027 291.33057641 -0.22960804 298.41221689 -0.22700275 C302.50353021 -0.22571637 306.5947741 -0.22774673 310.68607521 -0.23841095 C314.42653849 -0.24808999 318.16688513 -0.24867005 321.90735359 -0.24179779 C323.91207533 -0.24054259 325.91679554 -0.24921628 327.9214977 -0.25816262 C329.68832731 -0.25218947 329.68832731 -0.25218947 331.49085045 -0.24609566 C332.51381702 -0.2468551 333.53678359 -0.24761454 334.59074914 -0.24839699 C337 0 337 0 339 2 C339.26991906 4.68839385 339.08737357 7.29141936 339 10 C338.67 10 338.34 10 338 10 C338 8.02 338 6.04 338 4 C336.68 4.66 335.36 5.32 334 6 C334 5.01 334 4.02 334 3 C334.66 3 335.32 3 336 3 C336 2.34 336 1.68 336 1 C334.9447819 1.00317395 334.9447819 1.00317395 333.86824626 1.00641203 C292.20766432 1.13172033 250.54708224 1.25698183 208.88649998 1.38218227 C203.88828189 1.3972032 198.8900638 1.41222453 193.8918457 1.42724609 C192.39921402 1.43173202 192.39921402 1.43173202 190.87642816 1.43630856 C174.74770454 1.48478241 158.61898102 1.53328807 142.49025752 1.58180541 C125.95025163 1.63155924 109.41024564 1.68127905 92.87023956 1.73096704 C82.65781548 1.76164737 72.44539149 1.79235447 62.23296759 1.82309544 C55.23729971 1.84415094 48.24163172 1.86517351 41.24596366 1.88616979 C37.20518524 1.89829847 33.16440687 1.91044204 29.12362862 1.92262459 C25.42817723 1.93376569 21.73272571 1.94486567 18.0372741 1.9559322 C16.05914636 1.96186688 14.08101875 1.96784623 12.10289115 1.97382689 C10.93694727 1.97731028 9.7710034 1.98079368 8.5697279 1.98438263 C7.5592921 1.98742039 6.5488563 1.99045815 5.50780123 1.99358797 C3.67187225 1.99828213 1.83593499 2 0 2 C0 1.34 0 0.68 0 0 Z " fill="#64B01B" transform="translate(125,18)"/>
<path d="M0 0 C2.42099412 -0.01686413 4.84193292 -0.04452987 7.26269531 -0.08203125 C10.82145949 -0.13642852 14.37911069 -0.15857426 17.93823242 -0.17333984 C19.020345 -0.19600922 20.10245758 -0.21867859 21.21736145 -0.24203491 C28.59979505 -0.22099736 28.59979505 -0.22099736 31.94287109 2.66015625 C33.66187645 6.16431926 33.75346686 8.49211726 33.26245117 12.35009766 C31.73510742 14.56494141 31.73510742 14.56494141 30.26245117 16.35009766 C30.42293945 15.31949219 30.42293945 15.31949219 30.58666992 14.26806641 C30.70655273 13.36701172 30.82643555 12.46595703 30.94995117 11.53759766 C31.07756836 10.64427734 31.20518555 9.75095703 31.33666992 8.83056641 C31.47598887 6.37500009 31.47598887 6.37500009 30.21513367 4.71635437 C27.29197239 2.67107116 24.38313926 2.95654052 20.9453125 3.00952148 C20.20360306 3.0090834 19.46189362 3.00864532 18.69770813 3.00819397 C16.24636501 3.01028383 13.79570604 3.03362347 11.34448242 3.05712891 C9.64483514 3.06272418 7.94518302 3.0669946 6.24552917 3.06999207 C1.77213176 3.08144632 -2.70097342 3.11091838 -7.17425537 3.144104 C-11.73893277 3.17479244 -16.30365738 3.18849477 -20.8684082 3.20361328 C-29.8249168 3.23578761 -38.78120851 3.28699091 -47.73754883 3.35009766 C-47.40754883 4.34009766 -47.07754883 5.33009766 -46.73754883 6.35009766 C-46.07754883 6.68009766 -45.41754883 7.01009766 -44.73754883 7.35009766 C-44.00679234 9.66415985 -43.33616625 11.99838635 -42.73754883 14.35009766 C-43.72754883 14.35009766 -44.71754883 14.35009766 -45.73754883 14.35009766 C-46.17067383 12.95791016 -46.17067383 12.95791016 -46.61254883 11.53759766 C-47.62504883 8.25218099 -47.62504883 8.25218099 -49.73754883 5.35009766 C-49.73754883 4.03009766 -49.73754883 2.71009766 -49.73754883 1.35009766 C-33.16047318 0.57904538 -16.59541885 0.08468802 0 0 Z " fill="#ECD892" transform="translate(303.737548828125,245.64990234375)"/>
<path d="M0 0 C0 0.33 0 0.66 0 1 C-19.47 1.66 -38.94 2.32 -59 3 C-56.69 3.33 -54.38 3.66 -52 4 C-54.33214148 5.20628008 -56.49642139 6.1654738 -59 7 C-59 7.66 -59 8.32 -59 9 C-57.68 9.33 -56.36 9.66 -55 10 C-54.67 12.64 -54.34 15.28 -54 18 C-53.01 18 -52.02 18 -51 18 C-50.67 19.65 -50.34 21.3 -50 23 C-49.34 23 -48.68 23 -48 23 C-47.34 25.97 -46.68 28.94 -46 32 C-45.01 32 -44.02 32 -43 32 C-41.33329974 35.52948291 -40.86416544 37.28272326 -42 41 C-47.18634386 33.94080974 -51.39775203 26.66371616 -55.0625 18.6875 C-55.89321682 16.81810662 -55.89321682 16.81810662 -58 16 C-59.54828113 12.21531279 -60.24012841 9.08218297 -60 5 C-60.99 4.67 -61.98 4.34 -63 4 C-63 3.01 -63 2.02 -63 1 C-41.99965831 -0.1843093 -21.02525166 -0.10429192 0 0 Z " fill="#E6BA2D" transform="translate(319,248)"/>
<path d="M0 0 C0.99 0 1.98 0 3 0 C3 1.65 3 3.3 3 5 C4.32 5 5.64 5 7 5 C7.061875 5.78375 7.12375 6.5675 7.1875 7.375 C7.455625 8.24125 7.72375 9.1075 8 10 C10.47636012 11.37466625 10.47636012 11.37466625 13 12 C13 12.66 13 13.32 13 14 C13.66 14.33 14.32 14.66 15 15 C14.34 15.66 13.68 16.32 13 17 C12.83322718 20.58343976 12.83322718 20.58343976 13 24 C13.66 24 14.32 24 15 24 C15 25.65 15 27.3 15 29 C19.54805635 29.17835515 22.8794254 28.99785435 27 27 C27 25.35 27 23.7 27 22 C27.66 21.67 28.32 21.34 29 21 C29.66 20.01 30.32 19.02 31 18 C30.67 19.65 30.34 21.3 30 23 C29.34 23 28.68 23 28 23 C28 24.65 28 26.3 28 28 C27.34 28.33 26.68 28.66 26 29 C25.67 29.99 25.34 30.98 25 32 C24.34 32 23.68 32 23 32 C23 33.32 23 34.64 23 36 C20.625 35.75 20.625 35.75 18 35 C16.8125 33 16.8125 33 16 31 C15.34 30.67 14.68 30.34 14 30 C12.9296875 27.8203125 12.9296875 27.8203125 11.875 25.125 C11.52179688 24.24070312 11.16859375 23.35640625 10.8046875 22.4453125 C10 20 10 20 10 17 C9.01 16.67 8.02 16.34 7 16 C5.4296875 13.41796875 5.4296875 13.41796875 3.875 10.1875 C3.35679687 9.12917969 2.83859375 8.07085937 2.3046875 6.98046875 C1.26867178 4.61376219 0.50023081 2.51945518 0 0 Z " fill="#E8B422" transform="translate(278,289)"/>
<path d="M0 0 C0.99 0 1.98 0 3 0 C3.21952523 3.84169158 2.72664863 6.54670274 1 10 C0.01 10.495 0.01 10.495 -1 11 C-1.83369564 13.08296849 -1.83369564 13.08296849 -2.5 15.5 C-3.21875 17.96875 -3.21875 17.96875 -4 20 C-4.66 20.33 -5.32 20.66 -6 21 C-6.66163689 22.56019179 -7.25603612 24.14927836 -7.8125 25.75 C-9.54337762 30.30906632 -11.27630588 32.89692157 -15 36 C-15 35.01 -15 34.02 -15 33 C-14.34 33 -13.68 33 -13 33 C-13.020625 32.21625 -13.04125 31.4325 -13.0625 30.625 C-13 28 -13 28 -12 26 C-11.34 26 -10.68 26 -10 26 C-10.33 24.68 -10.66 23.36 -11 22 C-10.01 22 -9.02 22 -8 22 C-8.02320313 21.39671875 -8.04640625 20.7934375 -8.0703125 20.171875 C-8.08835937 19.37265625 -8.10640625 18.5734375 -8.125 17.75 C-8.14820313 16.96109375 -8.17140625 16.1721875 -8.1953125 15.359375 C-7.97767636 12.73033049 -7.46290812 11.18951811 -6 9 C-3 8 -3 8 0 9 C0 8.34 0 7.68 0 7 C-0.66 7 -1.32 7 -2 7 C-2 5.68 -2 4.36 -2 3 C-1.34 3 -0.68 3 0 3 C0 2.01 0 1.02 0 0 Z " fill="#EDB025" transform="translate(333,252)"/>
<path d="M0 0 C0.99 0.33 1.98 0.66 3 1 C2.42415568 3.38564077 1.77772405 5.66682784 1 8 C0.34 8 -0.32 8 -1 8 C-1.0825 8.721875 -1.165 9.44375 -1.25 10.1875 C-2.48845571 14.83170889 -5.6860327 17.6860327 -9 21 C-9.66 21.99 -10.32 22.98 -11 24 C-11 23.34 -11 22.68 -11 22 C-28.82 22 -46.64 22 -65 22 C-65 21.67 -65 21.34 -65 21 C-47.18 21 -29.36 21 -11 21 C-10.505 19.515 -10.505 19.515 -10 18 C-9.34 18 -8.68 18 -8 18 C-7.8453125 17.071875 -7.8453125 17.071875 -7.6875 16.125 C-7 14 -7 14 -4 12 C-3.27034634 9.43717258 -3.27034634 9.43717258 -3 7 C-2.01 7 -1.02 7 0 7 C0 4.69 0 2.38 0 0 Z " fill="#56AC07" transform="translate(398,135)"/>
<path d="M0 0 C5.26726699 4.84650897 8.41681828 11.6972216 11.5 18.0625 C13.55153373 22.28468877 15.99473929 26.04558675 18.65234375 29.90625 C20.5308538 32.82474677 21.72168327 35.77377207 23 39 C23.5775 40.093125 24.155 41.18625 24.75 42.3125 C25.1625 43.199375 25.575 44.08625 26 45 C25.67 45.66 25.34 46.32 25 47 C23 46 23 46 22.21875 44.1875 C21.73958333 42.72916667 21.26041667 41.27083333 20.78125 39.8125 C20.14670555 37.80487204 20.14670555 37.80487204 18 37 C18 35.35 18 33.7 18 32 C17.34 32 16.68 32 16 32 C14.4921875 29.91796875 14.4921875 29.91796875 12.875 27.1875 C12.33617187 26.29417969 11.79734375 25.40085938 11.2421875 24.48046875 C10 22 10 22 10 19 C9.01 18.67 8.02 18.34 7 18 C6.19140625 15.85546875 6.19140625 15.85546875 5.5625 13.1875 C4.43563682 8.97375098 3.28122231 6.94178552 0 4 C0 2.68 0 1.36 0 0 Z " fill="#96BB4B" transform="translate(162,111)"/>
<path d="M0 0 C0 3.38279583 -0.63249431 4.31483186 -2.375 7.125 C-8.66152987 18.20211496 -7.88718101 30.63536007 -5.6328125 42.85546875 C-5.13009335 45.18862197 -5.13009335 45.18862197 -3 47 C-3.33 47.99 -3.66 48.98 -4 50 C-10.82676523 42.52306665 -10.90248498 31.66495506 -10.62890625 22.125 C-9.96583756 13.91587113 -5.81972609 5.81972609 0 0 Z " fill="#B1CD79" transform="translate(57,138)"/>
<path d="M0 0 C0.6875 1.625 0.6875 1.625 1 4 C-0.4375 7.25 -0.4375 7.25 -2 10 C-2.66 10 -3.32 10 -4 10 C-4.226875 10.825 -4.45375 11.65 -4.6875 12.5 C-6.03502304 16.09339477 -7.75427144 18.91774125 -9.8359375 22.11328125 C-11.19378995 24.31409579 -12.06458079 26.59463631 -13 29 C-13.48339844 29.60070312 -13.96679688 30.20140625 -14.46484375 30.8203125 C-16.64313245 33.91314989 -17.19940006 37.11569583 -18.05859375 40.7578125 C-19 43 -19 43 -21.09765625 44.3046875 C-22.03931641 44.64886719 -22.03931641 44.64886719 -23 45 C-22.45276317 41.62537285 -21.9451 39.91765 -20 37 C-19.835 36.13375 -19.67 35.2675 -19.5 34.375 C-19.2525 33.199375 -19.2525 33.199375 -19 32 C-18.34 31.67 -17.68 31.34 -17 31 C-16.34786708 28.97536745 -16.34786708 28.97536745 -16 27 C-15.01 27 -14.02 27 -13 27 C-12.87625 26.29875 -12.7525 25.5975 -12.625 24.875 C-11.95731453 21.80364682 -11.13303617 18.9325642 -10 16 C-9.34 15.67 -8.68 15.34 -8 15 C-7.16952992 13.14759836 -7.16952992 13.14759836 -6.5 11 C-5.78125 8.8125 -5.78125 8.8125 -5 7 C-4.34 6.67 -3.68 6.34 -3 6 C-2.67 5.01 -2.34 4.02 -2 3 C-1.34 3 -0.68 3 0 3 C0 2.01 0 1.02 0 0 Z " fill="#A2C260" transform="translate(245,422)"/>
<path d="M0 0 C0.33 0 0.66 0 1 0 C1.34833144 4.87664009 0.41685712 7.77050005 -2 12 C-2.66 12 -3.32 12 -4 12 C-4.2165625 12.8971875 -4.2165625 12.8971875 -4.4375 13.8125 C-4.8872439 15.56150404 -5.42892341 17.28677023 -6 19 C-6.66 19.33 -7.32 19.66 -8 20 C-10.12837953 23.1925693 -11.66592079 26.40824827 -13 30 C-13.66 30 -14.32 30 -15 30 C-15.12375 30.7425 -15.2475 31.485 -15.375 32.25 C-15.96646509 34.85244639 -16.81696152 36.63392305 -18 39 C-18.69730806 41.3243602 -19.36912152 43.65673706 -20 46 C-20.66 46 -21.32 46 -22 46 C-21.45294868 41.4047689 -20.16523048 38.07063331 -18 34 C-17.649375 33.071875 -17.29875 32.14375 -16.9375 31.1875 C-16 29 -16 29 -14 28 C-13.28489918 26.36548385 -12.5769346 24.7274563 -11.90625 23.07421875 C-10.95540557 20.89793258 -9.86075561 18.87697862 -8.6875 16.8125 C-5.57014909 11.31911943 -2.78941872 5.66510812 0 0 Z " fill="#B7D184" transform="translate(97,61)"/>
<path d="M0 0 C0.33 0.66 0.66 1.32 1 2 C1.99 2.33 2.98 2.66 4 3 C7.31963205 7.78027015 9.33535716 12.13124975 9 18 C9.66 18 10.32 18 11 18 C11 19.65 11 21.3 11 23 C11.99 23 12.98 23 14 23 C14 24.65 14 26.3 14 28 C14.66 28 15.32 28 16 28 C16.66 30.64 17.32 33.28 18 36 C17.34 36 16.68 36 16 36 C15.18325204 34.25197854 14.37176549 32.50149811 13.5625 30.75 C13.11003906 29.77546875 12.65757812 28.8009375 12.19140625 27.796875 C11 25 11 25 10.52734375 22.703125 C10.35332031 22.14109375 10.17929688 21.5790625 10 21 C9.01 20.67 8.02 20.34 7 20 C6.19140625 17.92578125 6.19140625 17.92578125 5.5625 15.3125 C4.67680247 12.0099789 3.83280392 9.39224727 1.8125 6.625 C0 4 0 4 0 0 Z " fill="#B8D187" transform="translate(134,347)"/>
<path d="M0 0 C0.33 1.32 0.66 2.64 1 4 C0.01 4.33 -0.98 4.66 -2 5 C-2 6.65 -2 8.3 -2 10 C-2.99 10.495 -2.99 10.495 -4 11 C-4.33 11.99 -4.66 12.98 -5 14 C-5.66 14 -6.32 14 -7 14 C-7 15.32 -7 16.64 -7 18 C-9.375 17.75 -9.375 17.75 -12 17 C-13.1875 15 -13.1875 15 -14 13 C-14.66 12.67 -15.32 12.34 -16 12 C-16.73075648 9.6859378 -17.40138258 7.35171131 -18 5 C-17.01 5.33 -16.02 5.66 -15 6 C-15 7.65 -15 9.3 -15 11 C-10.45194365 11.17835515 -7.1205746 10.99785435 -3 9 C-3 7.35 -3 5.7 -3 4 C-2.34 3.67 -1.68 3.34 -1 3 C-0.67 2.01 -0.34 1.02 0 0 Z " fill="#DBC051" transform="translate(308,307)"/>
<path d="M0 0 C0.33 0.99 0.66 1.98 1 3 C1.99 3.33 2.98 3.66 4 4 C4 4.66 4 5.32 4 6 C4.99 6 5.98 6 7 6 C7.33 7.65 7.66 9.3 8 11 C8.66 11 9.32 11 10 11 C10.66 13.97 11.32 16.94 12 20 C12.99 20 13.98 20 15 20 C16.66670026 23.52948291 17.13583456 25.28272326 16 29 C10.81365614 21.94080974 6.60224797 14.66371616 2.9375 6.6875 C2.10678318 4.81810662 2.10678318 4.81810662 0 4 C0 2.68 0 1.36 0 0 Z " fill="#D9C34F" transform="translate(261,260)"/>
<path d="M0 0 C0.99 0.66 1.98 1.32 3 2 C1.25 5.875 1.25 5.875 -1 7 C-1.83585019 9.03054705 -2.46630271 11.09216868 -3.12109375 13.1875 C-3.41113281 13.785625 -3.70117188 14.38375 -4 15 C-4.99 15.33 -5.98 15.66 -7 16 C-7.33 13.36 -7.66 10.72 -8 8 C-7.34 7.67 -6.68 7.34 -6 7 C-5.01 7.33 -4.02 7.66 -3 8 C-2.67 6.35 -2.34 4.7 -2 3 C-1.34 3 -0.68 3 0 3 C0 2.01 0 1.02 0 0 Z " fill="#E5AF2A" transform="translate(312,295)"/>
<path d="M0 0 C0.66 0.33 1.32 0.66 2 1 C2 1.99 2 2.98 2 4 C3.32 4.33 4.64 4.66 6 5 C5.375 7.4375 5.375 7.4375 4 10 C0.875 10.8125 0.875 10.8125 -2 11 C-2 9.35 -2 7.7 -2 6 C-2.66 6 -3.32 6 -4 6 C-4 4 -4 4 -2 1.875 C-1.34 1.25625 -0.68 0.6375 0 0 Z " fill="#F4B115" transform="translate(312,286)"/>
<path d="M0 0 C1 3 1 3 0.375 4.875 C-1.40967262 7.63313041 -3.65271414 9.71139629 -6 12 C-6.99 13.485 -6.99 13.485 -8 15 C-8.66 13.02 -9.32 11.04 -10 9 C-9.34 9 -8.68 9 -8 9 C-8.33 7.35 -8.66 5.7 -9 4 C-8.01 3.67 -7.02 3.34 -6 3 C-6 3.66 -6 4.32 -6 5 C-4.68 5 -3.36 5 -2 5 C-1.34 3.35 -0.68 1.7 0 0 Z " fill="#73B731" transform="translate(424,95)"/>
<path d="M0 0 C4.9178211 4.42603899 7.52496441 9.97382638 10 16 C10.5775 17.093125 11.155 18.18625 11.75 19.3125 C12.1625 20.199375 12.575 21.08625 13 22 C12.67 22.66 12.34 23.32 12 24 C10 23 10 23 9.21875 21.1875 C8.73958333 19.72916667 8.26041667 18.27083333 7.78125 16.8125 C7.14670555 14.80487204 7.14670555 14.80487204 5 14 C5 12.35 5 10.7 5 9 C4.34 9 3.68 9 3 9 C0.56839395 5.63316085 0 4.26649636 0 0 Z " fill="#A6C668" transform="translate(175,134)"/>
<path d="M0 0 C0.99 0.33 1.98 0.66 3 1 C3 2.65 3 4.3 3 6 C-0.44833324 8.05257931 -2.31661591 9.0632763 -6.375 8.6875 C-7.24125 8.460625 -8.1075 8.23375 -9 8 C-9 6.35 -9 4.7 -9 3 C-9.66 2.67 -10.32 2.34 -11 2 C-10.01 2 -9.02 2 -8 2 C-8 3.65 -8 5.3 -8 7 C-7.01 6.34 -6.02 5.68 -5 5 C-2.3125 4.875 -2.3125 4.875 0 5 C0 3.35 0 1.7 0 0 Z " fill="#EAAF14" transform="translate(302,310)"/>
<path d="M0 0 C1.485 0.99 1.485 0.99 3 2 C3 2.99 3 3.98 3 5 C3.99 5.33 4.98 5.66 6 6 C6 6.99 6 7.98 6 9 C7.32 8.01 8.64 7.02 10 6 C11 9 11 9 10 12 C10.27769908 14.3406065 10.60539977 16.67624308 11 19 C11.66 19 12.32 19 13 19 C12.67 20.32 12.34 21.64 12 23 C11.4225 21.845 10.845 20.69 10.25 19.5 C9.88648438 18.77683594 9.52296875 18.05367187 9.1484375 17.30859375 C8.39107355 15.78613765 7.64595323 14.25752063 6.9140625 12.72265625 C6.57117188 12.00980469 6.22828125 11.29695312 5.875 10.5625 C5.56304687 9.90378906 5.25109375 9.24507812 4.9296875 8.56640625 C4.08132551 6.81528651 4.08132551 6.81528651 2 6 C1.27306096 4.02111039 0.60183749 2.02045442 0 0 Z " fill="#82C04B" transform="translate(189,133)"/>
<path d="M0 0 C0.33 0 0.66 0 1 0 C1.34833144 4.87664009 0.41685712 7.77050005 -2 12 C-2.66 12 -3.32 12 -4 12 C-4.12375 12.598125 -4.2475 13.19625 -4.375 13.8125 C-5 16 -5 16 -7 19 C-7.33439729 14.20697215 -6.63914338 11.95871507 -4 8 C-2.62103456 5.35574727 -1.30966609 2.67916465 0 0 Z " fill="#A7C668" transform="translate(97,61)"/>
<path d="M0 0 C0.66 0.33 1.32 0.66 2 1 C1.67 2.65 1.34 4.3 1 6 C0.01 6 -0.98 6 -2 6 C-2.10441406 6.55300781 -2.20882813 7.10601562 -2.31640625 7.67578125 C-3.14270316 10.48519073 -4.4242314 12.68265197 -5.9375 15.1875 C-6.46214844 16.06792969 -6.98679687 16.94835937 -7.52734375 17.85546875 C-9 20 -9 20 -11 21 C-10.34 18.03 -9.68 15.06 -9 12 C-8.01 12 -7.02 12 -6 12 C-6 10.68 -6 9.36 -6 8 C-5.01 8 -4.02 8 -3 8 C-2.67 6.68 -2.34 5.36 -2 4 C-1.34 4 -0.68 4 0 4 C0 2.68 0 1.36 0 0 Z " fill="#A4CB7A" transform="translate(451,48)"/>
<path d="M0 0 C0.33 0.99 0.66 1.98 1 3 C0.06846465 4.43057215 -0.8725705 5.85646003 -1.875 7.23828125 C-3.8173671 10.27997418 -4.82722117 13.5989414 -6 17 C-6.99 17 -7.98 17 -9 17 C-9.33 17.99 -9.66 18.98 -10 20 C-9.42770134 15.99390935 -8.06310411 13.43850685 -6 10 C-5.29329272 7.30745009 -5.29329272 7.30745009 -5 5 C-4.01 5 -3.02 5 -2 5 C-1.34 3.35 -0.68 1.7 0 0 Z " fill="#A5CD7C" transform="translate(463,28)"/>
<path d="M0 0 C2.80496817 2.47841964 4.32957227 5.20256207 6.0625 8.5 C7.61769555 11.444187 9.15122196 14.22683295 11 17 C10.625 19.1875 10.625 19.1875 10 21 C6.6988736 16.65641263 4.62990242 13.23897206 3 8 C2.195625 6.948125 2.195625 6.948125 1.375 5.875 C0 4 0 4 0 0 Z " fill="#9BBF55" transform="translate(133,58)"/>
<path d="M0 0 C0.66 0.33 1.32 0.66 2 1 C-1.5971223 12.00719424 -1.5971223 12.00719424 -3 15 C-3.99 15.495 -3.99 15.495 -5 16 C-6.0409066 17.64142963 -7.04504326 19.30712215 -8 21 C-8 18 -8 18 -6.5 15.625 C-4.86514134 12.76399735 -4.72309411 11.23056872 -5 8 C-4.01 8 -3.02 8 -2 8 C-2 6.35 -2 4.7 -2 3 C-1.34 3 -0.68 3 0 3 C0 2.01 0 1.02 0 0 Z " fill="#8FC160" transform="translate(434,74)"/>
<path d="M0 0 C0.99 0.33 1.98 0.66 3 1 C2.67386719 1.58007812 2.34773438 2.16015625 2.01171875 2.7578125 C0.04891628 6.26653904 -1.88019787 9.7511802 -3.625 13.375 C-4.87319759 15.75792268 -5.97536426 17.26459793 -8 19 C-8 17.35 -8 15.7 -8 14 C-7.01 14 -6.02 14 -5 14 C-5 12.02 -5 10.04 -5 8 C-4.01 8 -3.02 8 -2 8 C-2 6.35 -2 4.7 -2 3 C-1.34 3 -0.68 3 0 3 C0 2.01 0 1.02 0 0 Z " fill="#72B232" transform="translate(413,110)"/>
<path d="M0 0 C0.66 0.33 1.32 0.66 2 1 C1.525625 1.7425 1.05125 2.485 0.5625 3.25 C-0.77869327 5.61050015 -1.512312 7.36648477 -2 10 C-2.66 10 -3.32 10 -4 10 C-4 11.32 -4 12.64 -4 14 C-4.99 14.495 -4.99 14.495 -6 15 C-6.66 15.99 -7.32 16.98 -8 18 C-8.33 16.35 -8.66 14.7 -9 13 C-7.68 12.67 -6.36 12.34 -5 12 C-5.33 10.68 -5.66 9.36 -6 8 C-5.01 8 -4.02 8 -3 8 C-3 6.35 -3 4.7 -3 3 C-2.01 3 -1.02 3 0 3 C0 2.01 0 1.02 0 0 Z " fill="#66AE20" transform="translate(455,38)"/>
<path d="M0 0 C0.33 0.66 0.66 1.32 1 2 C1.99 2.33 2.98 2.66 4 3 C6.53947486 6.6568438 9.36523959 10.7476892 8.625 15.3125 C8.41875 15.869375 8.2125 16.42625 8 17 C7.67 16.01 7.34 15.02 7 14 C6.34 13.67 5.68 13.34 5 13 C2.4906128 8.94710294 0.59476219 4.75809749 0 0 Z " fill="#95BB4C" transform="translate(134,347)"/>
<path d="M0 0 C0 3.92426335 -1.44326469 5.82899908 -3.4375 9.1875 C-4.07558594 10.27417969 -4.71367187 11.36085938 -5.37109375 12.48046875 C-5.90863281 13.31191406 -6.44617188 14.14335938 -7 15 C-7.33 15 -7.66 15 -8 15 C-8.20125603 11.37739148 -7.92410596 9.09994848 -6 6 C-5.34 5.34 -4.68 4.68 -4 4 C-3.67 3.01 -3.34 2.02 -3 1 C-2.01 0.67 -1.02 0.34 0 0 Z " fill="#61AD18" transform="translate(429,85)"/>
<path d="M0 0 C0 4.19078725 -1.39621956 7.00980008 -3.5625 10.5625 C-4.87112025 12.78146478 -5.53532436 14.49075157 -6 17 C-6.99 17 -7.98 17 -9 17 C-7.86489753 14.11858604 -6.68172726 11.27433815 -5.4375 8.4375 C-3.97186879 5.23448071 -3.97186879 5.23448071 -3.5 2.625 C-3.335 2.08875 -3.17 1.5525 -3 1 C-2.01 0.67 -1.02 0.34 0 0 Z " fill="#B9D289" transform="translate(286,347)"/>
<path d="M0 0 C1.485 0.99 1.485 0.99 3 2 C3 2.99 3 3.98 3 5 C3.99 5.33 4.98 5.66 6 6 C7.89800405 9.7960081 8.87949799 13.91817126 10 18 C6.6443794 15.7629196 6.80721959 15.57482962 6 12 C5.34 11.67 4.68 11.34 4 11 C2.9296875 9.00390625 2.9296875 9.00390625 1.875 6.5625 C1.52179687 5.75941406 1.16859375 4.95632812 0.8046875 4.12890625 C0 2 0 2 0 0 Z " fill="#9DC057" transform="translate(54,188)"/>
<path d="M0 0 C0.99 0.33 1.98 0.66 3 1 C3.66 4.3 4.32 7.6 5 11 C5.99 11 6.98 11 8 11 C8.66 13.64 9.32 16.28 10 19 C4.71222305 15.47481536 2.20237182 9.5078078 0.6875 3.4375 C0.460625 2.303125 0.23375 1.16875 0 0 Z " fill="#A8C76C" transform="translate(184,447)"/>
<path d="M0 0 C0.99 0 1.98 0 3 0 C1.45454854 5.47932789 -1.15543212 10.11429181 -4 15 C-4.33 15 -4.66 15 -5 15 C-5 13.02 -5 11.04 -5 9 C-4.34 9 -3.68 9 -3 9 C-3 7.68 -3 6.36 -3 5 C-2.01 5 -1.02 5 0 5 C0 3.35 0 1.7 0 0 Z " fill="#96BA4E" transform="translate(219,467)"/>
<path d="M0 0 C2.45862401 -0.05383848 4.9160755 -0.09359038 7.375 -0.125 C8.42300781 -0.15013672 8.42300781 -0.15013672 9.4921875 -0.17578125 C11.32897486 -0.19344267 13.16601963 -0.10303261 15 0 C17 2 17 2 17.1953125 3.9453125 C17.13020833 5.96354167 17.06510417 7.98177083 17 10 C16.67 10 16.34 10 16 10 C16 8.02 16 6.04 16 4 C14.02 4.99 14.02 4.99 12 6 C12 5.01 12 4.02 12 3 C12.66 3 13.32 3 14 3 C14 2.34 14 1.68 14 1 C9.38 1 4.76 1 0 1 C0 0.67 0 0.34 0 0 Z " fill="#68B022" transform="translate(447,18)"/>
<path d="M0 0 C0.33 1.32 0.66 2.64 1 4 C0.01 4.33 -0.98 4.66 -2 5 C-2 6.65 -2 8.3 -2 10 C-2.99 10.495 -2.99 10.495 -4 11 C-4.33 11.99 -4.66 12.98 -5 14 C-5.66 14 -6.32 14 -7 14 C-7 15.32 -7 16.64 -7 18 C-8.32 17.67 -9.64 17.34 -11 17 C-10.01 17 -9.02 17 -8 17 C-8 15.02 -8 13.04 -8 11 C-6.35 10.34 -4.7 9.68 -3 9 C-3 7.35 -3 5.7 -3 4 C-2.34 3.67 -1.68 3.34 -1 3 C-0.67 2.01 -0.34 1.02 0 0 Z " fill="#EAD18C" transform="translate(308,307)"/>
<path d="M0 0 C0.99 0 1.98 0 3 0 C3.185625 1.2065625 3.185625 1.2065625 3.375 2.4375 C3.58125 3.283125 3.7875 4.12875 4 5 C4.66 5.33 5.32 5.66 6 6 C6.33 6.99 6.66 7.98 7 9 C7.66 9.33 8.32 9.66 9 10 C8.67 11.65 8.34 13.3 8 15 C3.88712361 11.59624023 2.58611314 7.91998152 1 3 C0.67 2.01 0.34 1.02 0 0 Z " fill="#75B833" transform="translate(143,50)"/>
<path d="M0 0 C0.99 0.33 1.98 0.66 3 1 C3.6875 3.0625 3.6875 3.0625 4 5 C2.68 5 1.36 5 0 5 C-0.99 6.485 -0.99 6.485 -2 8 C-2.66 7.67 -3.32 7.34 -4 7 C-3.39816251 4.97954558 -2.72693904 2.97888961 -2 1 C-1.34 0.67 -0.68 0.34 0 0 Z " fill="#93BA47" transform="translate(116,29)"/>
<path d="M0 0 C1.98 0.99 1.98 0.99 4 2 C4 3.65 4 5.3 4 7 C4.99 7.33 5.98 7.66 7 8 C7 9.65 7 11.3 7 13 C6.34 13 5.68 13 5 13 C4.80664062 12.43410156 4.61328125 11.86820312 4.4140625 11.28515625 C4.15367187 10.55167969 3.89328125 9.81820313 3.625 9.0625 C3.24214844 7.96615234 3.24214844 7.96615234 2.8515625 6.84765625 C2.14728587 4.81317884 2.14728587 4.81317884 0 4 C0 2.68 0 1.36 0 0 Z " fill="#A7C66A" transform="translate(152,384)"/>
<path d="M0 0 C0.99 0 1.98 0 3 0 C0.84615385 8 0.84615385 8 -1 11 C-1.99 11.495 -1.99 11.495 -3 12 C-3.66 12.99 -4.32 13.98 -5 15 C-4.37321829 11.33827525 -3.35548154 8.1181005 -1.9375 4.6875 C-1.39416016 3.36298828 -1.39416016 3.36298828 -0.83984375 2.01171875 C-0.56269531 1.34785156 -0.28554688 0.68398438 0 0 Z " fill="#B4CF7E" transform="translate(271,371)"/>
<path d="M0 0 C0.99 0.33 1.98 0.66 3 1 C2.42415568 3.38564077 1.77772405 5.66682784 1 8 C0.34 8 -0.32 8 -1 8 C-1.12375 8.804375 -1.2475 9.60875 -1.375 10.4375 C-1.58125 11.283125 -1.7875 12.12875 -2 13 C-2.99 13.495 -2.99 13.495 -4 14 C-3.67 11.69 -3.34 9.38 -3 7 C-2.01 7 -1.02 7 0 7 C0 4.69 0 2.38 0 0 Z " fill="#8FBE5C" transform="translate(398,135)"/>
<path d="M0 0 C0.33 0.66 0.66 1.32 1 2 C-0.65 2.66 -2.3 3.32 -4 4 C-4.66 3.34 -5.32 2.68 -6 2 C-8.65537372 1.43479997 -11.29144713 1.26211802 -14 1 C-14 0.67 -14 0.34 -14 0 C-12.41773035 -0.19627391 -10.83410729 -0.38165538 -9.25 -0.5625 C-8.36828125 -0.66691406 -7.4865625 -0.77132812 -6.578125 -0.87890625 C-4.08536537 -0.99599041 -2.32874167 -0.87590058 0 0 Z " fill="#FAB312" transform="translate(334,250)"/>
<path d="M0 0 C1.32 0.33 2.64 0.66 4 1 C4 1.66 4 2.32 4 3 C5.32 2.67 6.64 2.34 8 2 C8 2.99 8 3.98 8 5 C6.02 5.99 6.02 5.99 4 7 C0 2.25 0 2.25 0 0 Z " fill="#63B018" transform="translate(187,128)"/>
<path d="M0 0 C0.99 0 1.98 0 3 0 C3.5345256 1.24420647 4.05208611 2.49570936 4.5625 3.75 C4.85253906 4.44609375 5.14257812 5.1421875 5.44140625 5.859375 C6.07831803 8.30012784 5.80248831 9.6403655 5 12 C4.67 11.01 4.34 10.02 4 9 C3.34 8.67 2.68 8.34 2 8 C0.11813998 4.9681144 0 3.75482645 0 0 Z " fill="#7EC045" transform="translate(163,85)"/>
<path d="M0 0 C0.99 0 1.98 0 3 0 C3 1.65 3 3.3 3 5 C3.66 5 4.32 5 5 5 C5.66 7.64 6.32 10.28 7 13 C6.34 13 5.68 13 5 13 C4.16209211 11.21046815 3.32980604 9.41830305 2.5 7.625 C1.80390625 6.12839844 1.80390625 6.12839844 1.09375 4.6015625 C0 2 0 2 0 0 Z " fill="#AFCB77" transform="translate(171,422)"/>
<path d="M0 0 C0.66 0.33 1.32 0.66 2 1 C2 1.99 2 2.98 2 4 C2.66 4.33 3.32 4.66 4 5 C3.34 6.32 2.68 7.64 2 9 C1.34 9 0.68 9 0 9 C-0.87890625 2.84765625 -0.87890625 2.84765625 -1 1 C-0.67 0.67 -0.34 0.34 0 0 Z " fill="#F0B122" transform="translate(305,302)"/>
<path d="M0 0 C0.66 0.33 1.32 0.66 2 1 C1.40606618 2.29640378 0.79942011 3.58698839 0.1875 4.875 C-0.14894531 5.59429687 -0.48539062 6.31359375 -0.83203125 7.0546875 C-2 9 -2 9 -5 11 C-5 10.01 -5 9.02 -5 8 C-4.34 8 -3.68 8 -3 8 C-3.0928125 6.8553125 -3.0928125 6.8553125 -3.1875 5.6875 C-3 3 -3 3 -1.5 1.1875 C-1.005 0.795625 -0.51 0.40375 0 0 Z " fill="#E1B648" transform="translate(323,277)"/>
<path d="M0 0 C2.75177354 1.66584638 3.86650557 2.65580355 5.046875 5.69921875 C5.27890625 6.68535156 5.5109375 7.67148438 5.75 8.6875 C5.99234375 9.68136719 6.2346875 10.67523438 6.484375 11.69921875 C6.73960937 12.83810547 6.73960937 12.83810547 7 14 C2.49687831 9.70156566 1.35697537 5.91253554 0 0 Z " fill="#ADCA74" transform="translate(188,158)"/>
<path d="M0 0 C2.97 0.495 2.97 0.495 6 1 C5.67 3.64 5.34 6.28 5 9 C1.9083091 6.47043472 1.09068668 3.77545388 0 0 Z " fill="#63B118" transform="translate(133,32)"/>
<path d="M0 0 C1.0680182 2.77684731 0.96475091 4.16022313 0.3125 7.125 C-1 10 -1 10 -3.125 11.375 C-3.74375 11.58125 -4.3625 11.7875 -5 12 C-4.42365861 7.24518354 -2.44931479 4.02951788 0 0 Z " fill="#BFD694" transform="translate(227,455)"/>
<path d="M0 0 C0.61875 0.804375 1.2375 1.60875 1.875 2.4375 C3.74164041 5.03874519 3.74164041 5.03874519 6 6 C6.625 9.0625 6.625 9.0625 7 12 C5.5 10.625 5.5 10.625 4 9 C4 8.34 4 7.68 4 7 C3.01 6.67 2.02 6.34 1 6 C0.67 4.02 0.34 2.04 0 0 Z " fill="#BBD38D" transform="translate(261,291)"/>
<path d="M0 0 C2.30874711 2.16614803 4.05290181 4.39206608 5.75 7.0625 C6.19859375 7.75472656 6.6471875 8.44695312 7.109375 9.16015625 C7.40328125 9.76730469 7.6971875 10.37445313 8 11 C7.67 11.66 7.34 12.32 7 13 C6.38125 11.88625 6.38125 11.88625 5.75 10.75 C4.12625555 7.94994288 4.12625555 7.94994288 1.8125 5.9375 C0 4 0 4 0 0 Z " fill="#AECB74" transform="translate(162,111)"/>
<path d="M0 0 C-1.32 0.33 -2.64 0.66 -4 1 C-4 2.32 -4 3.64 -4 5 C-3.34 5 -2.68 5 -2 5 C-2.33 6.32 -2.66 7.64 -3 9 C-7 2.25 -7 2.25 -7 0 C-3.86650268 -1.04449911 -3.01031744 -0.93423645 0 0 Z " fill="#70B72E" transform="translate(134,22)"/>
<path d="M0 0 C0.99 0 1.98 0 3 0 C2 4 2 4 1 8 C-0.32 7.67 -1.64 7.34 -3 7 C-3 6.34 -3 5.68 -3 5 C-2.01 5 -1.02 5 0 5 C0 3.35 0 1.7 0 0 Z " fill="#E4AB1D" transform="translate(325,269)"/>
<path d="M0 0 C1.98 0 3.96 0 6 0 C5.34 2.31 4.68 4.62 4 7 C3.67 6.01 3.34 5.02 3 4 C2.01 4 1.02 4 0 4 C0 2.68 0 1.36 0 0 Z " fill="#EDB532" transform="translate(325,265)"/>
<path d="M0 0 C0 3.12900213 -0.42451317 4.37418862 -2 7 C-2.99 7.495 -2.99 7.495 -4 8 C-4.66 8.99 -5.32 9.98 -6 11 C-6 9.35 -6 7.7 -6 6 C-5.01 5.67 -4.02 5.34 -3 5 C-2.6278958 3.67696283 -2.29369827 2.34262065 -2 1 C-1.34 0.67 -0.68 0.34 0 0 Z " fill="#6DAE2A" transform="translate(393,148)"/>
<path d="M0 0 C2.9244745 2.63202705 5.02154932 5.60837026 7 9 C6.67 9.99 6.34 10.98 6 12 C0 4.6 0 4.6 0 0 Z " fill="#B5CF81" transform="translate(175,134)"/>
<path d="M0 0 C0.99 0.33 1.98 0.66 3 1 C3 2.65 3 4.3 3 6 C1.35 6.33 -0.3 6.66 -2 7 C-2 6.34 -2 5.68 -2 5 C-1.34 5 -0.68 5 0 5 C0 3.35 0 1.7 0 0 Z " fill="#EEB027" transform="translate(302,310)"/>
<path d="M0 0 C0.99 0 1.98 0 3 0 C5.09230769 4.43076923 5.09230769 4.43076923 4.625 7.3125 C4.41875 7.869375 4.2125 8.42625 4 9 C0 3.375 0 3.375 0 0 Z " fill="#D9B530" transform="translate(273,280)"/>
<path d="M0 0 C0.99 0 1.98 0 3 0 C3.28875 1.03125 3.5775 2.0625 3.875 3.125 C4.82308798 6.45007997 5.88256594 9.72751453 7 13 C3.77477676 10.84985117 3.26937837 9.93845623 1.8125 6.5 C1.46832031 5.7059375 1.12414062 4.911875 0.76953125 4.09375 C0 2 0 2 0 0 Z " fill="#B0CC7B" transform="translate(88,256)"/>
<path d="M0 0 C0.66 0 1.32 0 2 0 C2 2.64 2 5.28 2 8 C1.01 8 0.02 8 -1 8 C-1.04241723 5.66705225 -1.04092937 3.33297433 -1 1 C-0.67 0.67 -0.34 0.34 0 0 Z " fill="#5AAD0D" transform="translate(461,22)"/>
<path d="M0 0 C0.66 0.33 1.32 0.66 2 1 C2 2.32 2 3.64 2 5 C1.01 5.33 0.02 5.66 -1 6 C-1.66 5.67 -2.32 5.34 -3 5 C-2.625 3.0625 -2.625 3.0625 -2 1 C-1.34 0.67 -0.68 0.34 0 0 Z " fill="#F6B217" transform="translate(329,260)"/>
<path d="M0 0 C0.99 0 1.98 0 3 0 C5.27678571 6.96428571 5.27678571 6.96428571 4 11 C3.32591692 9.73308493 2.66099503 8.46129251 2 7.1875 C1.62875 6.47980469 1.2575 5.77210938 0.875 5.04296875 C0 3 0 3 0 0 Z " fill="#D6C04B" transform="translate(278,289)"/>
<path d="M0 0 C0.99 0.495 0.99 0.495 2 1 C2 1.99 2 2.98 2 4 C3.32 4.33 4.64 4.66 6 5 C5.34 6.65 4.68 8.3 4 10 C3.67 8.68 3.34 7.36 3 6 C2.34 6 1.68 6 1 6 C0.67 4.02 0.34 2.04 0 0 Z " fill="#EFB833" transform="translate(312,286)"/>
<path d="M0 0 C3.48331435 3.01887244 4.79157144 5.56909529 6 10 C5.34 10 4.68 10 4 10 C3.32845067 8.71086513 2.66291141 7.41859796 2 6.125 C1.62875 5.40570313 1.2575 4.68640625 0.875 3.9453125 C0 2 0 2 0 0 Z " fill="#ACC972" transform="translate(247,266)"/>
<path d="M0 0 C0.6875 1.625 0.6875 1.625 1 4 C-0.4375 7.25 -0.4375 7.25 -2 10 C-2.66 10 -3.32 10 -4 10 C-3.34 7.69 -2.68 5.38 -2 3 C-1.34 3 -0.68 3 0 3 C0 2.01 0 1.02 0 0 Z " fill="#CCDEAA" transform="translate(245,422)"/>
<path d="M0 0 C0.99 0.495 0.99 0.495 2 1 C2 1.99 2 2.98 2 4 C2.99 4.33 3.98 4.66 5 5 C5 6.65 5 8.3 5 10 C2.08772731 6.71195019 0.50298788 4.40114397 0 0 Z " fill="#A0C25E" transform="translate(125,329)"/>
<path d="M0 0 C3.67230705 3.07999946 4.56802365 5.2482602 5 10 C4.34 10 3.68 10 3 10 C2.01 6.7 1.02 3.4 0 0 Z " fill="#ACC971" transform="translate(242,256)"/>
<path d="M0 0 C2.61500768 2.36595933 4.38999603 4.86049226 6 8 C5.67 8.66 5.34 9.32 5 10 C0 4.5 0 4.5 0 0 Z " fill="#A4C464" transform="translate(133,58)"/>
<path d="M0 0 C0.99 0 1.98 0 3 0 C1.84414715 3.91211733 0.64465038 6.8745041 -2 10 C-1.33333333 6.66666667 -0.66666667 3.33333333 0 0 Z " fill="#A6C567" transform="translate(219,467)"/>
<path d="M0 0 C1.32 0 2.64 0 4 0 C4 2.64 4 5.28 4 8 C3.34 7.67 2.68 7.34 2 7 C1.26924352 4.6859378 0.59861742 2.35171131 0 0 Z " fill="#DDB226" transform="translate(281,294)"/>
<path d="M0 0 C0.33 0.99 0.66 1.98 1 3 C3.01508358 3.73323796 3.01508358 3.73323796 5 4 C5 5.65 5 7.3 5 9 C4.34 9 3.68 9 3 9 C0.56839395 5.63316085 0 4.26649636 0 0 Z " fill="#D8B123" transform="translate(259,254)"/>
<path d="M0 0 C1 2 1 2 0.25 4.4375 C-0.93098981 6.85852911 -1.9831559 8.25818009 -4 10 C-3.43454163 6.04179141 -2.19097652 3.3340947 0 0 Z " fill="#7DAB21" transform="translate(89,80)"/>
<path d="M0 0 C0 3 0 3 -1 6 C-1.99 6 -2.98 6 -4 6 C-4.33 6.99 -4.66 7.98 -5 9 C-4.5206753 4.68607774 -3.2542015 2.83430453 0 0 Z " fill="#C8E1B3" transform="translate(458,39)"/>
</svg>
